<svg xmlns="http://www.w3.org/2000/svg" fill="none" viewBox="0 0 72 16">
  <path fill="#fff" d="M0 13.883V2.643h7.442v1.959H2.376V7.28h4.572v1.96H2.376v4.643H0Zm12.22.164c-.867 0-1.614-.176-2.24-.527a3.609 3.609 0 0 1-1.437-1.504c-.337-.65-.505-1.421-.505-2.31 0-.867.168-1.628.505-2.283A3.732 3.732 0 0 1 9.964 5.89c.615-.366 1.336-.549 2.163-.549.556 0 1.074.09 1.553.27.483.175.904.44 1.262.795.363.355.644.802.845 1.34.202.534.302 1.16.302 1.876v.643H8.971v-1.45h4.918a1.79 1.79 0 0 0-.22-.894 1.572 1.572 0 0 0-.61-.61 1.737 1.737 0 0 0-.894-.224c-.355 0-.67.082-.944.247-.27.16-.483.378-.637.653-.153.27-.232.573-.236.905v1.378c0 .417.077.778.231 1.081.157.304.379.538.664.703.285.165.624.247 1.015.247.26 0 .498-.037.714-.11a1.43 1.43 0 0 0 .906-.867l2.162.143c-.11.52-.335.973-.675 1.36a3.39 3.39 0 0 1-1.306.9c-.53.213-1.144.32-1.839.32Zm9.237 0c-.867 0-1.614-.176-2.24-.527a3.608 3.608 0 0 1-1.437-1.504c-.337-.65-.505-1.421-.505-2.31 0-.867.168-1.628.505-2.283A3.732 3.732 0 0 1 19.2 5.89c.615-.366 1.336-.549 2.163-.549.556 0 1.074.09 1.553.27.483.175.904.44 1.262.795.363.355.644.802.846 1.34.2.534.301 1.16.301 1.876v.643h-7.118v-1.45h4.918c0-.336-.074-.634-.22-.894a1.573 1.573 0 0 0-.61-.61 1.738 1.738 0 0 0-.894-.224c-.355 0-.67.082-.944.247-.27.16-.483.378-.636.653-.154.27-.233.573-.236.905v1.378c0 .417.076.778.23 1.081.157.304.379.538.664.703.285.165.624.247 1.015.247.26 0 .498-.037.714-.11a1.432 1.432 0 0 0 .906-.867l2.162.143c-.11.52-.335.973-.675 1.36a3.39 3.39 0 0 1-1.306.9c-.53.213-1.144.32-1.839.32Zm8.502-.027c-.64 0-1.22-.165-1.74-.494-.516-.333-.926-.822-1.23-1.466-.3-.647-.45-1.441-.45-2.382 0-.966.156-1.769.467-2.41.31-.643.724-1.124 1.24-1.443a3.178 3.178 0 0 1 1.707-.483c.472 0 .866.081 1.18.242.319.157.575.355.768.593.198.234.348.464.45.691h.072V2.642h2.332v11.24H32.45v-1.35h-.098c-.11.235-.266.467-.467.697a2.317 2.317 0 0 1-.774.566c-.314.15-.699.225-1.152.225Zm.74-1.86c.377 0 .696-.103.955-.308.264-.209.465-.5.604-.873.143-.373.214-.81.214-1.312 0-.5-.07-.936-.208-1.306-.14-.37-.34-.655-.604-.856-.263-.201-.584-.302-.96-.302-.385 0-.709.104-.972.313-.263.208-.463.497-.598.867-.136.37-.203.798-.203 1.284 0 .49.067.924.203 1.301.139.373.338.666.598.878.263.209.587.313.971.313Zm5.935 1.723v-1.395l4.127-5.11v-.06h-3.984V5.452h6.8v1.52l-3.875 4.984v.06h4.017v1.867h-7.085Zm11.277.159a3.524 3.524 0 0 1-1.438-.28 2.32 2.32 0 0 1-.999-.84c-.241-.373-.362-.838-.362-1.394 0-.468.086-.862.258-1.18a2.09 2.09 0 0 1 .703-.768c.296-.194.633-.34 1.01-.44.38-.098.779-.168 1.196-.208.49-.051.885-.099 1.185-.143.3-.047.518-.117.654-.208a.458.458 0 0 0 .203-.407v-.032c0-.348-.11-.617-.33-.807-.215-.19-.523-.286-.922-.286-.42 0-.755.094-1.004.28a1.288 1.288 0 0 0-.494.692l-2.163-.176a2.94 2.94 0 0 1 .648-1.328 3.108 3.108 0 0 1 1.246-.867c.512-.205 1.105-.308 1.778-.308.469 0 .917.055 1.345.165.432.11.814.28 1.147.51.337.231.602.527.796.89.194.358.29.788.29 1.29v5.686h-2.217v-1.17h-.065a2.378 2.378 0 0 1-.544.697c-.227.198-.5.354-.818.467-.318.11-.686.165-1.103.165Zm.67-1.614c.344 0 .647-.068.91-.203.264-.14.471-.326.621-.56.15-.234.225-.5.225-.796v-.894a1.249 1.249 0 0 1-.302.131 5.49 5.49 0 0 1-.422.105c-.158.029-.315.056-.472.082l-.428.06c-.275.04-.514.105-.72.193a1.15 1.15 0 0 0-.477.356.87.87 0 0 0-.17.55c0 .317.115.56.346.729.234.165.53.247.889.247Zm5.892 1.455v-8.43h2.338v8.43h-2.338Zm1.174-9.517a1.27 1.27 0 0 1-.894-.346 1.12 1.12 0 0 1-.368-.84c0-.322.122-.598.368-.829A1.26 1.26 0 0 1 55.647 2c.348 0 .644.117.89.351.248.23.373.507.373.829 0 .326-.125.606-.374.84a1.25 1.25 0 0 1-.889.346Zm10.051 3.49-2.14.132a1.106 1.106 0 0 0-.237-.494c-.12-.15-.28-.269-.477-.357A1.622 1.622 0 0 0 62.147 7c-.362 0-.668.077-.917.23-.248.15-.373.352-.373.604 0 .201.08.372.242.51.16.14.437.251.828.335l1.526.308c.82.168 1.43.439 1.833.812.403.373.604.864.604 1.471 0 .553-.163 1.037-.489 1.454-.322.418-.764.743-1.328.977-.56.23-1.205.346-1.937.346-1.116 0-2.005-.232-2.668-.697a2.716 2.716 0 0 1-1.158-1.91l2.3-.12c.07.34.238.6.505.779.267.175.61.263 1.026.263.41 0 .74-.079.988-.236.253-.16.38-.368.385-.62a.645.645 0 0 0-.27-.521c-.175-.14-.446-.246-.812-.319l-1.46-.29c-.823-.165-1.436-.45-1.838-.857-.4-.406-.599-.924-.599-1.553 0-.542.147-1.008.44-1.4.296-.391.711-.693 1.245-.905.538-.212 1.168-.319 1.889-.319 1.064 0 1.902.225 2.513.676.615.45.974 1.062 1.076 1.838Zm6.148-2.404V7.21H66.77V5.452h5.077Zm-3.924-2.02h2.338v7.86c0 .216.033.384.099.505.066.117.157.2.274.247.121.047.26.071.418.071a2 2 0 0 0 .329-.027l.252-.05.368 1.74a6.586 6.586 0 0 1-.494.126c-.212.052-.47.083-.774.094-.563.022-1.057-.053-1.482-.225a2.068 2.068 0 0 1-.982-.802c-.234-.362-.35-.82-.346-1.372V3.432Z"/>
</svg>
